<svg id="visual" viewBox="0 0 1920 1080" width="1920" height="1080" xmlns="http://www.w3.org/2000/svg" xmlns:xlink="http://www.w3.org/1999/xlink" version="1.1"><rect x="0" y="0" width="1920" height="1080" fill="#202731"></rect><path d="M637 0L631.7 25.7C626.3 51.3 615.7 102.7 626.3 154.2C637 205.7 669 257.3 663.5 308.8C658 360.3 615 411.7 597.8 463C580.7 514.3 589.3 565.7 585.5 617C581.7 668.3 565.3 719.7 573.7 771.2C582 822.7 615 874.3 632.3 925.8C649.7 977.3 651.3 1028.7 652.2 1054.3L653 1080L0 1080L0 1054.3C0 1028.7 0 977.3 0 925.8C0 874.3 0 822.7 0 771.2C0 719.7 0 668.3 0 617C0 565.7 0 514.3 0 463C0 411.7 0 360.3 0 308.8C0 257.3 0 205.7 0 154.2C0 102.7 0 51.3 0 25.7L0 0Z" fill="#202731"></path><path d="M634 0L626.5 25.7C619 51.3 604 102.7 578.2 154.2C552.3 205.7 515.7 257.3 520.7 308.8C525.7 360.3 572.3 411.7 575.8 463C579.3 514.3 539.7 565.7 516.3 617C493 668.3 486 719.7 477.7 771.2C469.3 822.7 459.7 874.3 459.8 925.8C460 977.3 470 1028.7 475 1054.3L480 1080L0 1080L0 1054.3C0 1028.7 0 977.3 0 925.8C0 874.3 0 822.7 0 771.2C0 719.7 0 668.3 0 617C0 565.7 0 514.3 0 463C0 411.7 0 360.3 0 308.8C0 257.3 0 205.7 0 154.2C0 102.7 0 51.3 0 25.7L0 0Z" fill="#213c4b"></path><path d="M591 0L573.3 25.7C555.7 51.3 520.3 102.7 491.7 154.2C463 205.7 441 257.3 441.5 308.8C442 360.3 465 411.7 483.2 463C501.3 514.3 514.7 565.7 528.5 617C542.3 668.3 556.7 719.7 568.7 771.2C580.7 822.7 590.3 874.3 582.8 925.8C575.3 977.3 550.7 1028.7 538.3 1054.3L526 1080L0 1080L0 1054.3C0 1028.7 0 977.3 0 925.8C0 874.3 0 822.7 0 771.2C0 719.7 0 668.3 0 617C0 565.7 0 514.3 0 463C0 411.7 0 360.3 0 308.8C0 257.3 0 205.7 0 154.2C0 102.7 0 51.3 0 25.7L0 0Z" fill="#175362"></path><path d="M430 0L439.8 25.7C449.7 51.3 469.3 102.7 453.8 154.2C438.3 205.7 387.7 257.3 378 308.8C368.3 360.3 399.7 411.7 422.3 463C445 514.3 459 565.7 435.2 617C411.3 668.3 349.7 719.7 346.5 771.2C343.3 822.7 398.7 874.3 424.2 925.8C449.7 977.3 445.3 1028.7 443.2 1054.3L441 1080L0 1080L0 1054.3C0 1028.7 0 977.3 0 925.8C0 874.3 0 822.7 0 771.2C0 719.7 0 668.3 0 617C0 565.7 0 514.3 0 463C0 411.7 0 360.3 0 308.8C0 257.3 0 205.7 0 154.2C0 102.7 0 51.3 0 25.7L0 0Z" fill="#006b73"></path><path d="M330 0L335.7 25.7C341.3 51.3 352.7 102.7 354.7 154.2C356.7 205.7 349.3 257.3 351 308.8C352.7 360.3 363.3 411.7 341.8 463C320.3 514.3 266.7 565.7 240.8 617C215 668.3 217 719.7 239 771.2C261 822.7 303 874.3 315.2 925.8C327.3 977.3 309.7 1028.7 300.8 1054.3L292 1080L0 1080L0 1054.3C0 1028.7 0 977.3 0 925.8C0 874.3 0 822.7 0 771.2C0 719.7 0 668.3 0 617C0 565.7 0 514.3 0 463C0 411.7 0 360.3 0 308.8C0 257.3 0 205.7 0 154.2C0 102.7 0 51.3 0 25.7L0 0Z" fill="#008376"></path><path d="M259 0L251.8 25.7C244.7 51.3 230.3 102.7 210.8 154.2C191.3 205.7 166.7 257.3 162 308.8C157.3 360.3 172.7 411.7 196.5 463C220.3 514.3 252.7 565.7 261.8 617C271 668.3 257 719.7 236.5 771.2C216 822.7 189 874.3 183.2 925.8C177.3 977.3 192.7 1028.7 200.3 1054.3L208 1080L0 1080L0 1054.3C0 1028.7 0 977.3 0 925.8C0 874.3 0 822.7 0 771.2C0 719.7 0 668.3 0 617C0 565.7 0 514.3 0 463C0 411.7 0 360.3 0 308.8C0 257.3 0 205.7 0 154.2C0 102.7 0 51.3 0 25.7L0 0Z" fill="#009964"></path><path d="M121 0L119 25.7C117 51.3 113 102.7 106 154.2C99 205.7 89 257.3 83.2 308.8C77.3 360.3 75.7 411.7 80.3 463C85 514.3 96 565.7 107.8 617C119.7 668.3 132.3 719.7 136.8 771.2C141.3 822.7 137.7 874.3 125.2 925.8C112.7 977.3 91.3 1028.7 80.7 1054.3L70 1080L0 1080L0 1054.3C0 1028.7 0 977.3 0 925.8C0 874.3 0 822.7 0 771.2C0 719.7 0 668.3 0 617C0 565.7 0 514.3 0 463C0 411.7 0 360.3 0 308.8C0 257.3 0 205.7 0 154.2C0 102.7 0 51.3 0 25.7L0 0Z" fill="#4bac3f"></path></svg>