<svg id="visual" viewBox="0 0 960 300" width="960" height="300" xmlns="http://www.w3.org/2000/svg" xmlns:xlink="http://www.w3.org/1999/xlink" version="1.1"><path d="M0 104L22.8 106.7C45.7 109.3 91.3 114.7 137 122.7C182.7 130.7 228.3 141.3 274 145.2C319.7 149 365.3 146 411.2 137.8C457 129.7 503 116.3 548.8 111C594.7 105.7 640.3 108.3 686 112.5C731.7 116.7 777.3 122.3 823 132.3C868.7 142.3 914.3 156.7 937.2 163.8L960 171L960 301L937.2 301C914.3 301 868.7 301 823 301C777.3 301 731.7 301 686 301C640.3 301 594.7 301 548.8 301C503 301 457 301 411.2 301C365.3 301 319.7 301 274 301C228.3 301 182.7 301 137 301C91.3 301 45.7 301 22.8 301L0 301Z" fill="#4bac3f"></path><path d="M0 164L22.8 166.8C45.7 169.7 91.3 175.3 137 170.5C182.7 165.7 228.3 150.3 274 148.5C319.7 146.7 365.3 158.3 411.2 162.7C457 167 503 164 548.8 163.5C594.7 163 640.3 165 686 164.2C731.7 163.3 777.3 159.7 823 158.5C868.7 157.3 914.3 158.7 937.2 159.3L960 160L960 301L937.2 301C914.3 301 868.7 301 823 301C777.3 301 731.7 301 686 301C640.3 301 594.7 301 548.8 301C503 301 457 301 411.2 301C365.3 301 319.7 301 274 301C228.3 301 182.7 301 137 301C91.3 301 45.7 301 22.8 301L0 301Z" fill="#009964"></path><path d="M0 166L22.8 172C45.7 178 91.3 190 137 195.5C182.7 201 228.3 200 274 195.2C319.7 190.3 365.3 181.7 411.2 176.2C457 170.7 503 168.3 548.8 173.2C594.7 178 640.3 190 686 187.5C731.7 185 777.3 168 823 166.2C868.7 164.3 914.3 177.7 937.2 184.3L960 191L960 301L937.2 301C914.3 301 868.7 301 823 301C777.3 301 731.7 301 686 301C640.3 301 594.7 301 548.8 301C503 301 457 301 411.2 301C365.3 301 319.7 301 274 301C228.3 301 182.7 301 137 301C91.3 301 45.7 301 22.8 301L0 301Z" fill="#008376"></path><path d="M0 225L22.8 218C45.7 211 91.3 197 137 189.5C182.7 182 228.3 181 274 185C319.7 189 365.3 198 411.2 197.5C457 197 503 187 548.8 182.2C594.7 177.3 640.3 177.7 686 183.3C731.7 189 777.3 200 823 206.5C868.7 213 914.3 215 937.2 216L960 217L960 301L937.2 301C914.3 301 868.7 301 823 301C777.3 301 731.7 301 686 301C640.3 301 594.7 301 548.8 301C503 301 457 301 411.2 301C365.3 301 319.7 301 274 301C228.3 301 182.7 301 137 301C91.3 301 45.7 301 22.8 301L0 301Z" fill="#006b73"></path><path d="M0 215L22.8 215.2C45.7 215.3 91.3 215.7 137 214C182.7 212.3 228.3 208.7 274 207.2C319.7 205.7 365.3 206.3 411.2 207C457 207.7 503 208.3 548.8 213.8C594.7 219.3 640.3 229.7 686 231.8C731.7 234 777.3 228 823 227.3C868.7 226.7 914.3 231.3 937.2 233.7L960 236L960 301L937.2 301C914.3 301 868.7 301 823 301C777.3 301 731.7 301 686 301C640.3 301 594.7 301 548.8 301C503 301 457 301 411.2 301C365.3 301 319.7 301 274 301C228.3 301 182.7 301 137 301C91.3 301 45.7 301 22.8 301L0 301Z" fill="#175362"></path><path d="M0 258L22.8 254.3C45.7 250.7 91.3 243.3 137 239.7C182.7 236 228.3 236 274 237.2C319.7 238.3 365.3 240.7 411.2 241.3C457 242 503 241 548.8 243.2C594.7 245.3 640.3 250.7 686 249.2C731.7 247.7 777.3 239.3 823 240.2C868.7 241 914.3 251 937.2 256L960 261L960 301L937.2 301C914.3 301 868.7 301 823 301C777.3 301 731.7 301 686 301C640.3 301 594.7 301 548.8 301C503 301 457 301 411.2 301C365.3 301 319.7 301 274 301C228.3 301 182.7 301 137 301C91.3 301 45.7 301 22.8 301L0 301Z" fill="#213c4b"></path><path d="M0 264L22.8 267.2C45.7 270.3 91.3 276.7 137 275.5C182.7 274.3 228.3 265.7 274 263.3C319.7 261 365.3 265 411.2 269C457 273 503 277 548.8 276.2C594.7 275.3 640.3 269.7 686 268.5C731.7 267.3 777.3 270.7 823 270C868.7 269.3 914.3 264.7 937.2 262.3L960 260L960 301L937.2 301C914.3 301 868.7 301 823 301C777.3 301 731.7 301 686 301C640.3 301 594.7 301 548.8 301C503 301 457 301 411.2 301C365.3 301 319.7 301 274 301C228.3 301 182.7 301 137 301C91.3 301 45.7 301 22.8 301L0 301Z" fill="#202731"></path></svg>